{"title":"SAN ANDREAS (2015) 1080p BDrip x264 AC3-Hi AAC-En 5.1 Subs -DDR","uid":15585013,"size":3766205881,"categoryP":"video","categoryS":"hd___movies","magnet":"?xt=urn:btih:df379484edbfafc378b3ff799dfcb540a9975d86&amp;dn=SAN+ANDREAS+%282015%29+1080p+BDrip+x264+AC3-Hi+AAC-En+5.1+Subs+-DDR&amp;tr=udp%3A%2F%2Ftracker.leechers-paradise.org%3A6969&amp;tr=udp%3A%2F%2Fzer0day.ch%3A1337&amp;tr=udp%3A%2F%2Fopen.demonii.com%3A1337&amp;tr=udp%3A%2F%2Ftracker.coppersurfer.tk%3A6969&amp;tr=udp%3A%2F%2Fexodus.desync.com%3A6969","seeders":9,"leechers":10,"uploader":"SaM","files":3,"time":1471454749,"description":"1080 Blu-ray x264\r\n\r\nEnglish AAC 5.1\r\n\r\nHindi Untouched AC3 5.1\r\n\r\n\r\n\r\nEnglish Subtitle \r\n\r\n\r\np://extraimago.com/image/wcLc \nhttp://extraimago.com/image/wcL7 \nhttp://extraimago.com/image/wcLs \nhttp://extraimago.com/image/wcLn \nhttp://extraimago.com/image/wcLj \nhttp://extraimago.com/image/wcLT \nhttp://extraimago.com/image/wcLN \nhttp://extraimago.com/image/wcL2 \nhttp://extraimago.com/image/wcLw \nhttp://extraimago.com/image/wcLa \nhttp://extraimago.com/image/wcL8\r\n\r\nSpecs:\r\nSource: BD50 Blu-ray @ HDClub\r\n\r\nFormat : Matroska\r\nFile size : 3.48 GiB\r\nDuration : 1h 54mn\r\nOverall bit rate : 4 351 Kbps\r\n\r\nVideo\r\nFormat : AVC\r\nFormat/Info : Advanced Video Codec\r\nFormat profile :   \r\nFormat settings, CABAC : Yes\r\nFormat settings, ReFrames : 5 frames\r\nCodec ID : V_MPEG4/ISO/AVC\r\nDuration : 1h 54mn\r\nBit rate : 3 704 Kbps\r\nWidth : 1 920 pixels\r\nHeight : 800 pixels\r\nDisplay aspect ratio : 2.40:1\r\nFrame rate mode : Constant\r\nFrame rate : 23.976 (24000/1001) fps\r\nColor space : YUV\r\nChroma subsampling : 4:2:0\r\nBit depth : 8 bits\r\nScan type : Progressive\r\nBits/(Pixel*Frame) : 0.101\r\nStream size : 2.96 GiB (85%)\r\n\r\nAudio #1\r\nFormat : AC-3\r\nFormat/Info : Audio Coding 3\r\nMode extension : CM (complete main)\r\nFormat settings, Endianness : Big\r\nCodec ID : A_AC3\r\nDuration : 1h 54mn\r\nBit rate mode : Constant\r\nBit rate : 448 Kbps\r\nChannel(s) : 6 channels\r\nChannel positions : Front: L C R, Side: L R, LFE\r\nSampling rate : 48.0 KHz\r\nFrame rate : 31.250 fps (1536 spf)\r\nCompression mode : Lossy\r\nStream size : 367 MiB (10%)\r\nLanguage : Hindi\r\nDefault : Yes\r\nForced : No\r\n\r\nAudio #2\r\nID : 3\r\nFormat : AAC\r\nFormat/Info : Advanced Audio Codec\r\nFormat profile : LC\r\nCodec ID : A_AAC\r\nDuration : 1h 54mn\r\nBit rate : 192 Kbps\r\nChannel(s) : 6 channels\r\nChannel positions : Front: L C R, Side: L R, LFE\r\nSampling rate : 48.0 KHz\r\nFrame rate : 46.875 fps (1024 spf)\r\nCompression mode : Lossy\r\nDelay relative to video : 9ms\r\nStream size : 157 MiB (4%)\r\nLanguage : English\r\nDefault : No\r\nForced : No\r\n\r\nText\r\nID : 4\r\nFormat : VobSub\r\nMuxing mode : zlib\r\nCodec ID : S_VOBSUB\r\nCodec ID/Info : Picture based subtitle format used on DVDs\r\nDuration : 1h 52mn\r\nBit rate : 5 047 bps\r\nCount of elements : 1487\r\nStream size : 4.07 MiB (0%)\r\nLanguage : English\r\nDefault : Yes\r\nForced : No\r\n\r\nSAMPLE Included","torrent":{"xt":"urn:btih:df379484edbfafc378b3ff799dfcb540a9975d86","amp;dn":"SAN+ANDREAS+%282015%29+1080p+BDrip+x264+AC3-Hi+AAC-En+5.1+Subs+-DDR","amp;tr":["udp%3A%2F%2Ftracker.leechers-paradise.org%3A6969","udp%3A%2F%2Fzer0day.ch%3A1337","udp%3A%2F%2Fopen.demonii.com%3A1337","udp%3A%2F%2Ftracker.coppersurfer.tk%3A6969","udp%3A%2F%2Fexodus.desync.com%3A6969"],"infoHash":"df379484edbfafc378b3ff799dfcb540a9975d86","infoHashBuffer":{"type":"Buffer","data":[223,55,148,132,237,191,175,195,120,179,255,121,157,252,181,64,169,151,93,134]},"announce":[],"urlList":[]}}